<svg xmlns="http://www.w3.org/2000/svg" viewBox="0 0 200 160" width="200" height="160" role="img" aria-label="Nhân vật hướng dẫn động tác">
  <g id="prop-mat"><rect x="38" y="149" width="124" height="5" rx="2.5" fill="#DCE3EE"/></g>
  <g id="prop-bench"><rect x="140" y="110" width="48" height="6" rx="2" fill="#C5D0E3"/><rect x="144" y="116" width="6" height="34" rx="2" fill="#DCE3EE"/><rect x="178" y="116" width="6" height="34" rx="2" fill="#DCE3EE"/></g>
  <g id="rig" style="transform-origin:100px 150px">
    <g id="hips" style="transform-origin:100px 92px">
      <g id="thigh-b" style="transform-origin:100px 92px">
        <line x1="100" y1="92" x2="100" y2="121" stroke="#2E3E5C" stroke-width="11" stroke-linecap="round"/>
        <g id="shin-b" style="transform-origin:100px 121px">
          <line x1="100" y1="121" x2="100" y2="145" stroke="#2E3E5C" stroke-width="9.5" stroke-linecap="round"/>
          <g id="foot-b" style="transform-origin:100px 146px"><rect x="95.5" y="143.5" width="15" height="6.5" rx="3.2" fill="#B9D86A"/></g>
        </g>
      </g>
      <g id="thigh-f" style="transform-origin:100px 92px">
        <line x1="100" y1="92" x2="100" y2="121" stroke="#182743" stroke-width="11" stroke-linecap="round"/>
        <g id="shin-f" style="transform-origin:100px 121px">
          <line x1="100" y1="121" x2="100" y2="145" stroke="#182743" stroke-width="9.5" stroke-linecap="round"/>
          <g id="foot-f" style="transform-origin:100px 146px"><rect x="95.5" y="143.5" width="15" height="6.5" rx="3.2" fill="#D8F58A"/></g>
        </g>
      </g>
      <g id="torso" style="transform-origin:100px 92px">
        <g id="arm-b" style="transform-origin:100px 54px">
          <line x1="100" y1="54" x2="100" y2="73" stroke="#C98E6C" stroke-width="7.5" stroke-linecap="round"/>
          <line x1="100" y1="54" x2="100" y2="62" stroke="#1D48AE" stroke-width="10" stroke-linecap="round"/>
          <g id="forearm-b" style="transform-origin:100px 73px">
            <line x1="100" y1="73" x2="100" y2="89" stroke="#C98E6C" stroke-width="6.5" stroke-linecap="round"/>
            <circle cx="100" cy="90.5" r="3.6" fill="#C98E6C"/>
          </g>
        </g>
        <ellipse cx="100" cy="91" rx="11" ry="7.5" fill="#182743"/>
        <rect x="89.5" y="46" width="21" height="45" rx="9" fill="#2458D3"/>
        <line x1="100.5" y1="46" x2="101.5" y2="40" stroke="#E8B08A" stroke-width="6" stroke-linecap="round"/>
        <g id="head" style="transform-origin:101px 44px">
          <circle cx="102" cy="32" r="10" fill="#E8B08A"/>
          <path d="M91.6 33C90.8 22.5 98 18.6 104.6 19.6C109.6 20.4 112.6 24 112.4 27.6C108 25.4 101.8 25.2 97.6 28.6C96 30 95 33.6 94.6 37.4Z" fill="#182743"/>
          <circle cx="107.6" cy="32" r="1.3" fill="#182743"/>
        </g>
        <g id="arm-f" style="transform-origin:100px 54px">
          <line x1="100" y1="54" x2="100" y2="73" stroke="#E8B08A" stroke-width="7.5" stroke-linecap="round"/>
          <line x1="100" y1="54" x2="100" y2="62" stroke="#2458D3" stroke-width="10" stroke-linecap="round"/>
          <g id="forearm-f" style="transform-origin:100px 73px">
            <line x1="100" y1="73" x2="100" y2="89" stroke="#E8B08A" stroke-width="6.5" stroke-linecap="round"/>
            <circle cx="100" cy="90.5" r="3.6" fill="#E8B08A"/>
          </g>
        </g>
      </g>
    </g>
  </g>
</svg>
